<?xml version="1.0" encoding="UTF-8"?>
<svg id="Layer_1" data-name="Layer 1" xmlns="http://www.w3.org/2000/svg" viewBox="0 0 866.73 298.03">
  <defs>
    <style>
      .cls-1 {
        fill: #7a7a7a;
        fill-rule: evenodd;
      }
    </style>
  </defs>
  <path d="M46.83,137.28h-28.17v-38h28.17v-10.81c0-17.69,5.62-31.5,16.87-41.44,11.24-9.93,26.92-14.91,47-14.91h23.58v38h-22.93c-6.99,0-12.07,1.53-15.23,4.59-3.16,3.06-4.75,7.86-4.75,14.42v10.15h39.31v38h-39.31v127.44h-44.54v-127.44h0Z"/>
  <polygon points="173.51 98.68 210.86 98.68 210.86 264.72 173.51 264.72 173.51 98.68"/>
  <path class="cls-1" d="M192.19,31.07c14.89,0,26.95,12.06,26.95,26.95s-12.06,26.95-26.95,26.95-26.95-12.06-26.95-26.95,12.06-26.95,26.95-26.95Z"/>
  <path d="M385.29,166.19v98.52h-38.97v-104.06c-4.25-14.08-17.31-24.35-32.76-24.35s-28.46,10.24-32.73,24.27v104.14h-38.99v-98.52c0-.19,0-.38.03-.56,0-.13.03-.24.03-.38,2.74-37.19,33.78-66.57,71.67-66.57s68.96,29.37,71.67,66.57c0,.13.03.24.03.38.03.19.03.38.03.56Z"/>
  <path d="M485.07,98.01c-46.01,0-83.31,37.3-83.31,83.31s37.3,83.31,83.31,83.31c16.98,0,32.79-5.08,45.95-13.81v13.89h37.35v-83.66c-.13-45.87-37.38-83.04-83.31-83.04ZM485.07,227.01c-25.18,0-45.69-20.5-45.69-45.69s20.5-45.69,45.69-45.69,45.69,20.5,45.69,45.69-20.5,45.69-45.69,45.69Z"/>
  <path d="M761.63,135.74c25.19,0,45.68,20.49,45.68,45.68s-20.49,45.68-45.68,45.68-45.68-20.49-45.68-45.68,20.49-45.68,45.68-45.68M761.63,98.12c-46.01,0-83.3,37.3-83.3,83.3s37.3,83.3,83.3,83.3,83.3-37.3,83.3-83.3-37.3-83.3-83.3-83.3h0Z"/>
  <path d="M662.04,98.58v35.02c-24.29,2.26-39.8,13.87-39.88,44.96,0,.81.03,1.72.03,2.5v83.66h-37.35v-83.66h.03c-.03-.81-.05-7.28-.05-8.06,0-43.48,32.57-74.52,77.24-74.41Z"/>
</svg>